<?xml version="1.0" standalone="no"?>
<!DOCTYPE svg PUBLIC "-//W3C//DTD SVG 20010904//EN"
 "http://www.w3.org/TR/2001/REC-SVG-20010904/DTD/svg10.dtd">
<svg version="1.0" xmlns="http://www.w3.org/2000/svg"
 width="1280.000000pt" height="1024.000000pt" viewBox="0 0 1280.000000 1024.000000"
 preserveAspectRatio="xMidYMid meet">
<metadata>
Created by potrace 1.16, written by Peter Selinger 2001-2019
</metadata>
<g transform="translate(0.000000,1024.000000) scale(0.100000,-0.100000)"
fill="#000000" stroke="none">
<path d="M8115 5272 c-119 -41 -165 -115 -165 -265 0 -156 42 -196 253 -247
176 -41 187 -48 187 -112 0 -49 -16 -83 -47 -97 -35 -16 -208 -14 -300 4 -43
8 -81 15 -85 15 -5 0 -8 -38 -8 -84 l0 -84 53 -14 c34 -8 112 -13 222 -13 163
0 172 1 220 26 103 53 151 172 127 318 -20 116 -49 139 -248 190 -82 21 -159
43 -171 49 -40 22 -38 104 4 144 23 21 33 23 136 23 62 0 136 -4 165 -8 l52
-9 0 80 0 80 -50 11 c-82 18 -286 13 -345 -7z"/>
<path d="M8790 5175 l-12 -85 -49 0 -49 0 0 -70 0 -70 44 0 44 0 5 -207 c3
-133 10 -222 18 -247 18 -54 67 -100 122 -116 49 -13 231 -11 255 3 8 5 12 33
12 80 l0 72 -89 -3 c-85 -4 -91 -3 -115 22 l-26 25 0 186 0 185 110 0 110 0 0
70 0 70 -110 0 -110 0 0 85 0 85 -74 0 -74 0 -12 -85z"/>
<path d="M1730 4625 l0 -475 90 0 90 0 0 261 0 260 38 17 c25 11 65 16 125 17
133 0 127 13 127 -301 l0 -254 91 0 90 0 -3 288 c-3 274 -4 289 -25 329 -45
82 -102 107 -237 101 -71 -3 -103 -10 -148 -30 l-58 -27 0 145 0 144 -90 0
-90 0 0 -475z"/>
<path d="M9475 5083 c-134 -48 -179 -135 -179 -348 0 -191 35 -276 134 -330
50 -27 65 -29 176 -33 160 -6 220 11 284 76 25 26 51 65 59 87 7 22 16 101 18
176 8 212 -26 303 -134 356 -53 26 -69 28 -183 31 -100 2 -135 -1 -175 -15z
m254 -154 c42 -15 62 -55 68 -144 9 -111 -3 -181 -37 -218 -27 -30 -32 -32
-112 -35 -152 -5 -183 34 -175 223 4 113 16 147 61 169 37 18 149 21 195 5z"/>
<path d="M10429 5085 c-20 -7 -50 -20 -67 -29 -32 -16 -32 -16 -32 9 0 25 -1
25 -85 25 l-85 0 0 -355 0 -355 90 0 90 0 0 265 0 265 28 12 c15 6 66 13 115
16 l87 4 0 79 0 79 -52 -1 c-29 0 -69 -6 -89 -14z"/>
<path d="M10856 5080 c-98 -38 -148 -116 -167 -261 -8 -60 -8 -106 0 -173 20
-159 77 -239 192 -266 74 -18 279 -8 344 17 l50 19 3 72 c2 40 2 72 0 72 -2 0
-35 -7 -73 -15 -39 -8 -110 -15 -158 -15 -130 0 -169 23 -183 110 l-7 40 221
0 220 0 7 63 c9 81 -9 199 -38 251 -25 45 -72 81 -126 96 -63 17 -230 12 -285
-10z m237 -141 c31 -14 44 -37 52 -93 l7 -46 -146 0 -146 0 0 25 c0 38 25 90
51 109 27 19 144 22 182 5z"/>
<path d="M1095 5042 c-119 -41 -165 -115 -165 -265 0 -156 42 -196 253 -247
176 -41 187 -48 187 -112 0 -49 -16 -83 -47 -97 -35 -16 -208 -14 -300 4 -43
8 -81 15 -85 15 -5 0 -8 -38 -8 -84 l0 -84 53 -14 c34 -8 112 -13 222 -13 163
0 172 1 220 26 103 53 151 172 127 318 -20 116 -49 139 -248 190 -82 21 -159
43 -171 49 -40 22 -38 104 4 144 23 21 33 23 136 23 62 0 136 -4 165 -8 l52
-9 0 80 0 80 -50 11 c-82 18 -286 13 -345 -7z"/>
<path d="M2745 4853 c-134 -48 -179 -135 -179 -348 0 -191 35 -276 134 -330
50 -27 65 -29 176 -33 160 -6 220 11 284 76 25 26 51 65 59 87 7 22 16 101 18
176 8 212 -26 303 -134 356 -53 26 -69 28 -183 31 -100 2 -135 -1 -175 -15z
m254 -154 c42 -15 62 -55 68 -144 9 -111 -3 -181 -37 -218 -27 -30 -32 -32
-112 -35 -152 -5 -183 34 -175 223 4 113 16 147 61 169 37 18 149 21 195 5z"/>
<path d="M3656 4836 l-66 -35 0 30 0 29 -80 0 -80 0 0 -465 0 -465 90 0 90 0
0 108 0 108 123 -4 c107 -3 129 -1 179 18 123 46 172 148 171 355 -1 263 -70
354 -270 355 -85 0 -96 -2 -157 -34z m203 -152 c38 -32 51 -77 51 -179 0 -98
-12 -144 -46 -176 -22 -21 -37 -24 -112 -27 -48 -2 -99 1 -114 7 l-28 11 0
179 0 179 43 15 c23 9 72 16 109 16 57 1 71 -2 97 -25z"/>
<path d="M4416 4850 c-98 -38 -148 -116 -167 -261 -8 -60 -8 -106 0 -173 20
-159 77 -239 192 -266 74 -18 279 -8 344 17 l50 19 3 72 c2 40 2 72 0 72 -2 0
-35 -7 -73 -15 -39 -8 -110 -15 -158 -15 -130 0 -169 23 -183 110 l-7 40 221
0 220 0 7 63 c9 81 -9 199 -38 251 -25 45 -72 81 -126 96 -63 17 -230 12 -285
-10z m237 -141 c31 -14 44 -37 52 -93 l7 -46 -146 0 -146 0 0 25 c0 38 25 90
51 109 27 19 144 22 182 5z"/>
<path d="M3684 3148 c3 -13 18 -69 33 -126 l28 -103 35 3 c34 3 35 4 49 66 8
34 18 62 23 62 4 0 8 -6 8 -13 0 -7 7 -37 15 -65 15 -49 18 -52 49 -52 l33 0
31 119 c18 65 32 121 32 125 0 3 -13 6 -29 6 -29 0 -30 -2 -49 -82 l-19 -82
-19 79 c-19 78 -21 80 -51 83 -34 3 -39 -6 -59 -106 -4 -18 -10 -32 -14 -32
-4 0 -10 14 -14 32 -19 97 -25 108 -58 108 -27 0 -30 -3 -24 -22z"/>
<path d="M5947 3163 c-4 -3 -7 -15 -7 -25 0 -10 -7 -18 -15 -18 -9 0 -15 -9
-15 -25 0 -16 6 -25 15 -25 12 0 15 -13 15 -56 0 -80 10 -94 70 -94 47 0 50 2
50 25 0 21 -5 25 -29 25 -32 0 -41 14 -41 66 0 32 2 34 35 34 31 0 35 3 35 25
0 22 -4 25 -35 25 -31 0 -35 3 -35 25 0 18 -5 25 -18 25 -10 0 -22 -3 -25 -7z"/>
<path d="M8097 3163 c-4 -3 -7 -15 -7 -25 0 -10 -7 -18 -15 -18 -9 0 -15 -9
-15 -25 0 -16 6 -25 15 -25 12 0 15 -13 15 -56 0 -80 10 -94 70 -94 47 0 50 2
50 25 0 21 -5 25 -29 25 -32 0 -41 14 -41 66 0 32 2 34 35 34 31 0 35 3 35 25
0 22 -4 25 -35 25 -31 0 -35 3 -35 25 0 18 -5 25 -18 25 -10 0 -22 -3 -25 -7z"/>
<path d="M4121 3094 c-38 -48 -22 -158 24 -170 12 -3 44 -4 71 -2 44 3 49 6
52 28 3 24 1 25 -50 25 -42 0 -53 3 -56 18 -3 15 5 17 57 17 l61 0 0 38 c0 53
-23 72 -88 72 -43 0 -54 -4 -71 -26z"/>
<path d="M4571 3094 c-26 -33 -29 -118 -5 -152 14 -20 23 -23 77 -20 58 3 62
5 65 29 3 24 1 25 -45 25 l-48 -1 0 45 0 45 43 3 c37 3 42 6 42 28 0 22 -3 24
-54 24 -47 0 -57 -4 -75 -26z"/>
<path d="M4834 3112 c-20 -13 -34 -50 -34 -92 0 -42 14 -79 34 -92 6 -4 36 -8
67 -8 75 0 94 20 94 100 0 80 -19 100 -94 100 -31 0 -61 -4 -67 -8z"/>
<path d="M5110 3019 c0 -98 0 -99 25 -99 23 0 24 3 27 73 3 70 4 72 31 75 l27
3 0 -75 0 -76 30 0 30 0 0 76 0 75 28 -3 c26 -3 27 -5 30 -75 3 -70 4 -73 27
-73 25 0 25 1 25 89 0 59 -4 92 -13 99 -7 6 -65 10 -140 10 l-127 0 0 -99z"/>
<path d="M5521 3094 c-38 -48 -22 -158 24 -170 12 -3 44 -4 71 -2 44 3 49 6
52 28 3 24 1 25 -50 25 -42 0 -53 3 -56 18 -3 15 5 17 57 17 l61 0 0 38 c0 53
-23 72 -88 72 -43 0 -54 -4 -71 -26z"/>
<path d="M6184 3112 c-20 -13 -34 -50 -34 -92 0 -42 14 -79 34 -92 6 -4 36 -8
67 -8 75 0 94 20 94 100 0 80 -19 100 -94 100 -31 0 -61 -4 -67 -8z"/>
<path d="M6580 3112 c0 -4 16 -45 35 -91 42 -99 43 -111 10 -111 -20 0 -25 -5
-25 -25 0 -22 4 -25 39 -25 21 0 43 6 49 13 11 13 92 223 92 238 0 5 -13 9
-28 9 -26 0 -30 -5 -47 -60 -10 -33 -22 -57 -25 -53 -4 4 -15 32 -25 61 -15
47 -19 52 -46 52 -16 0 -29 -4 -29 -8z"/>
<path d="M6894 3112 c-20 -13 -34 -50 -34 -92 0 -42 14 -79 34 -92 6 -4 36 -8
67 -8 75 0 94 20 94 100 0 80 -19 100 -94 100 -31 0 -61 -4 -67 -8z"/>
<path d="M7170 3032 c0 -55 4 -92 12 -100 7 -7 43 -12 90 -12 l78 0 0 100 0
100 -30 0 -30 0 0 -76 0 -75 -32 3 -33 3 -3 73 c-3 69 -4 72 -27 72 -25 0 -25
-1 -25 -88z"/>
<path d="M7826 3104 c-9 -8 -16 -31 -16 -49 0 -39 20 -55 69 -55 21 0 31 -5
31 -15 0 -11 -12 -15 -50 -15 -47 0 -50 -2 -50 -25 0 -24 2 -25 64 -25 78 0
99 15 94 68 -3 39 -15 48 -71 57 -50 8 -37 25 19 25 40 0 44 2 44 25 0 24 -3
25 -59 25 -41 0 -65 -5 -75 -16z"/>
<path d="M8334 3112 c-20 -13 -34 -50 -34 -92 0 -42 14 -79 34 -92 6 -4 36 -8
67 -8 75 0 94 20 94 100 0 80 -19 100 -94 100 -31 0 -61 -4 -67 -8z"/>
<path d="M8841 3094 c-38 -48 -22 -158 24 -170 12 -3 44 -4 71 -2 44 3 49 6
52 28 3 24 1 25 -50 25 -42 0 -53 3 -56 18 -3 15 5 17 57 17 l61 0 0 38 c0 53
-23 72 -88 72 -43 0 -54 -4 -71 -26z"/>
</g>
</svg>
