<?xml version="1.0" standalone="no"?>
<!DOCTYPE svg PUBLIC "-//W3C//DTD SVG 20010904//EN"
 "http://www.w3.org/TR/2001/REC-SVG-20010904/DTD/svg10.dtd">
<svg version="1.0" xmlns="http://www.w3.org/2000/svg"
 width="1280.000000pt" height="1024.000000pt" viewBox="0 0 1280.000000 1024.000000"
 preserveAspectRatio="xMidYMid meet">
<metadata>
Created by potrace 1.16, written by Peter Selinger 2001-2019
</metadata>
<g transform="translate(0.000000,1024.000000) scale(0.100000,-0.100000)"
fill="#000000" stroke="none">
<path d="M0 5120 l0 -5120 6400 0 6400 0 0 5120 0 5120 -6400 0 -6400 0 0
-5120z m6832 83 l538 -538 -62 -62 -63 -63 -475 475 -476 476 -297 -298 -297
-298 295 -295 295 -295 55 55 c30 30 55 59 55 65 0 5 -104 113 -230 239 -127
126 -230 234 -230 240 0 6 79 90 175 186 l175 175 420 -420 420 -420 -420
-420 -420 -420 -540 540 -540 540 57 57 c32 32 62 58 68 58 5 0 224 -214 485
-475 l475 -475 292 292 c161 161 293 297 293 303 0 13 -572 585 -585 585 -6 0
-35 -25 -65 -55 l-55 -55 240 -240 240 -240 -180 -180 -180 -180 -423 422
-422 423 417 417 c230 230 420 418 423 418 3 0 247 -242 542 -537z m1623 73
l50 -11 3 -79 3 -79 -28 6 c-91 20 -217 28 -267 17 -65 -13 -87 -35 -93 -92
-8 -72 9 -84 184 -128 84 -21 166 -47 183 -57 55 -32 74 -76 78 -179 5 -119
-13 -177 -72 -232 -64 -59 -140 -76 -308 -69 -73 3 -155 12 -183 19 l-50 13
-3 83 c-2 45 1 82 5 82 5 0 23 -4 41 -10 61 -17 232 -32 289 -25 78 10 103 36
103 109 0 71 -7 76 -175 117 -72 17 -146 40 -167 50 -74 38 -103 107 -96 226
8 127 71 208 185 239 59 16 250 16 318 0z m493 -103 l3 -83 109 0 110 0 0 -70
0 -70 -110 0 -110 0 0 -188 c0 -137 3 -193 13 -206 18 -24 81 -37 155 -29 l62
6 0 -70 0 -71 -44 -11 c-113 -28 -240 -7 -295 48 -54 54 -61 91 -61 320 l0
201 -50 0 -50 0 0 70 0 70 49 0 c55 0 52 -4 67 105 4 28 9 54 11 58 3 4 35 7
71 5 l67 -3 3 -82z m-7038 -217 l0 -145 63 26 c72 30 190 41 254 24 53 -14 98
-52 126 -105 20 -39 22 -56 25 -323 l4 -283 -86 0 -86 0 -1 233 c-1 127 -4
245 -8 261 -14 67 -110 88 -233 52 l-58 -17 0 -264 0 -265 -85 0 -85 0 0 475
0 475 85 0 85 0 0 -144z m7908 114 c64 -28 104 -72 128 -142 26 -73 26 -321 1
-387 -26 -68 -61 -107 -123 -137 -47 -23 -73 -28 -161 -32 -183 -8 -284 37
-333 150 -19 43 -24 76 -28 176 -9 241 44 346 197 389 75 21 254 12 319 -17z
m752 -47 l0 -78 -68 -1 c-38 0 -90 -6 -115 -14 l-47 -13 0 -268 0 -269 -85 0
-85 0 0 355 0 355 75 0 c71 0 75 -1 81 -25 7 -27 14 -31 30 -16 17 18 129 50
172 51 l42 0 0 -77z m607 49 c95 -49 123 -114 123 -284 l0 -108 -220 0 -220 0
0 -34 c0 -54 37 -99 95 -114 52 -13 213 -3 283 17 l33 10 -3 -72 -3 -72 -55
-19 c-79 -26 -259 -34 -330 -13 -143 42 -197 151 -188 384 4 111 7 126 36 186
56 113 134 150 302 144 83 -3 114 -8 147 -25z m-9714 -30 c26 -11 27 -14 27
-88 l0 -76 -32 6 c-90 18 -209 25 -258 16 -29 -6 -54 -10 -57 -10 -11 0 -43
-70 -43 -96 0 -58 22 -71 188 -114 84 -22 169 -49 187 -60 19 -12 43 -40 55
-66 20 -39 22 -58 18 -147 -3 -85 -8 -109 -28 -145 -31 -55 -93 -96 -170 -112
-72 -15 -288 -8 -365 12 l-50 13 -3 83 c-2 45 1 82 5 82 5 0 23 -4 42 -10 59
-17 234 -32 290 -25 76 10 101 37 101 109 0 71 -8 76 -174 116 -134 32 -188
54 -219 88 -66 72 -60 269 10 352 28 34 83 65 140 80 49 12 300 6 336 -8z
m1622 -200 c110 -50 145 -121 153 -307 7 -204 -31 -303 -141 -359 -50 -25 -71
-30 -163 -34 -184 -8 -284 36 -335 150 -22 49 -24 66 -24 213 0 146 2 164 23
210 55 119 135 156 327 152 89 -2 119 -7 160 -25z m862 4 c94 -44 133 -140
133 -331 0 -196 -39 -287 -145 -340 -50 -25 -73 -30 -155 -33 -53 -2 -112 0
-133 6 l-37 10 0 -114 0 -114 -85 0 -85 0 0 465 0 465 75 0 75 0 0 -30 c0 -36
3 -36 42 -9 75 54 227 66 315 25z m784 1 c53 -23 98 -75 114 -131 9 -30 15
-92 15 -158 l0 -108 -221 0 -222 0 6 -40 c7 -51 30 -88 65 -102 36 -15 213
-11 285 6 l57 13 0 -72 0 -72 -57 -18 c-86 -26 -265 -32 -337 -11 -71 21 -126
69 -157 139 -31 72 -40 285 -15 372 31 105 82 159 179 191 56 18 238 12 288
-9z m-974 -1757 c10 -43 21 -76 24 -72 4 4 14 40 24 80 16 69 19 72 46 72 30
0 28 5 61 -128 l13 -54 19 91 c18 90 19 91 47 91 33 0 34 13 -10 -150 -26 -92
-27 -95 -57 -98 -29 -3 -31 -1 -47 57 -9 34 -17 68 -17 76 0 27 -17 7 -24 -27
-20 -100 -25 -109 -58 -106 -31 3 -32 5 -59 103 -44 160 -43 145 -10 145 29 0
30 -2 48 -80z m2233 55 c0 -22 4 -25 35 -25 28 0 35 -4 35 -20 0 -16 -7 -20
-35 -20 l-35 0 0 -50 c0 -52 16 -72 51 -63 15 4 19 0 19 -21 0 -24 -3 -26 -44
-26 -59 0 -76 23 -76 102 0 45 -3 58 -15 58 -8 0 -15 9 -15 20 0 11 7 20 15
20 8 0 17 11 21 25 4 16 13 25 25 25 14 0 19 -7 19 -25z m2150 0 c0 -22 4 -25
35 -25 28 0 35 -4 35 -20 0 -16 -7 -20 -35 -20 l-35 0 0 -50 c0 -52 16 -72 51
-63 15 4 19 0 19 -21 0 -24 -3 -26 -44 -26 -59 0 -76 23 -76 102 0 45 -3 58
-15 58 -8 0 -15 9 -15 20 0 11 7 20 15 20 8 0 17 11 21 25 4 16 13 25 25 25
14 0 19 -7 19 -25z m-3880 -45 c12 -12 20 -33 20 -55 l0 -35 -65 0 c-36 0 -65
-2 -65 -4 0 -27 16 -36 66 -36 46 0 54 -3 54 -19 0 -23 -19 -31 -75 -31 -68 0
-90 24 -90 100 0 53 3 65 24 81 32 26 104 26 131 -1z m440 -3 c0 -19 -5 -22
-40 -23 -49 -2 -50 -2 -56 -45 -7 -49 6 -63 60 -61 39 2 46 -1 46 -17 0 -23
-19 -31 -74 -31 -61 0 -81 25 -81 102 0 76 22 98 96 98 44 0 49 -2 49 -23z
m264 10 c38 -28 38 -146 0 -174 -27 -20 -108 -16 -135 6 -21 16 -24 28 -24 81
0 53 3 65 24 81 27 22 108 26 135 6z m412 -4 c10 -10 14 -39 14 -99 0 -83 0
-84 -25 -84 -24 0 -25 2 -25 75 l0 75 -30 0 -30 0 0 -75 0 -75 -30 0 -30 0 0
75 0 75 -30 0 -30 0 0 -75 c0 -73 -1 -75 -25 -75 -25 0 -25 0 -25 99 l0 98
126 0 c96 0 129 -3 140 -14z m284 -3 c12 -12 20 -33 20 -55 l0 -35 -65 0 c-36
0 -65 -2 -65 -4 0 -27 16 -36 66 -36 46 0 54 -3 54 -19 0 -23 -19 -31 -75 -31
-68 0 -90 24 -90 100 0 53 3 65 24 81 32 26 104 26 131 -1z m654 7 c23 -17 36
-78 25 -124 -10 -48 -32 -63 -90 -63 -72 0 -94 23 -94 100 0 53 3 65 24 81 27
22 108 26 135 6z m341 -47 c10 -34 22 -63 26 -65 3 -3 15 24 25 60 17 60 21
65 46 65 16 0 28 -2 28 -4 0 -16 -85 -225 -97 -238 -23 -25 -83 -24 -83 1 0
12 9 21 25 25 34 9 32 28 -10 126 -19 45 -35 84 -35 86 0 2 13 4 28 4 26 0 30
-5 47 -60z m369 47 c23 -17 36 -78 25 -124 -10 -48 -32 -63 -90 -63 -72 0 -94
23 -94 100 0 53 3 65 24 81 27 22 108 26 135 6z m196 -62 l0 -75 35 0 35 0 0
75 c0 73 1 75 25 75 25 0 25 0 25 -99 l0 -98 -67 -1 c-94 -2 -103 8 -103 115
0 82 0 83 25 83 24 0 25 -2 25 -75z m730 52 c0 -20 -5 -22 -39 -22 -22 0 -43
-3 -46 -7 -13 -13 7 -28 37 -28 59 0 86 -50 52 -98 -14 -20 -23 -23 -77 -20
-56 3 -62 5 -65 26 -3 21 0 23 40 21 74 -4 91 23 22 34 -45 8 -64 23 -64 53 0
40 33 64 90 64 45 0 50 -2 50 -23z m514 10 c23 -17 36 -78 25 -124 -10 -48
-32 -63 -90 -63 -72 0 -94 23 -94 100 0 53 3 65 24 81 27 22 108 26 135 6z
m516 -7 c12 -12 20 -33 20 -55 l0 -35 -65 0 c-36 0 -65 -2 -65 -4 0 -27 16
-36 66 -36 46 0 54 -3 54 -19 0 -23 -19 -31 -75 -31 -68 0 -90 24 -90 100 0
53 3 65 24 81 32 26 104 26 131 -1z"/>
<path d="M9561 4937 c-72 -20 -85 -47 -89 -180 -6 -177 17 -220 126 -231 77
-9 149 10 176 47 18 24 21 46 24 140 4 126 -8 180 -48 208 -32 24 -132 32
-189 16z"/>
<path d="M10965 4955 c-5 -2 -23 -6 -38 -9 -35 -8 -67 -59 -67 -108 l0 -38
145 0 145 0 0 33 c0 51 -30 100 -70 114 -33 11 -93 15 -115 8z"/>
<path d="M2841 4710 c-83 -17 -101 -54 -101 -205 0 -173 27 -209 159 -208 148
1 166 23 166 208 0 175 -12 195 -130 208 -27 3 -70 1 -94 -3z"/>
<path d="M3705 4710 c-22 -5 -52 -13 -67 -19 l-28 -11 0 -184 0 -185 38 -8
c69 -14 168 -7 204 14 44 26 57 67 57 188 0 113 -13 160 -49 186 -31 21 -101
30 -155 19z"/>
<path d="M4504 4721 c-17 -4 -36 -11 -43 -16 -18 -11 -41 -69 -41 -105 l0 -30
145 0 145 0 0 33 c0 51 -30 100 -70 114 -39 13 -90 15 -136 4z"/>
</g>
</svg>
